<svg viewBox="0 0 243 243" xmlns="http://www.w3.org/2000/svg"><g stroke-width="1.4445"><path d="m153.59654 46.514755c-16.64064 2.22453-27.93663 17.926245-27.93663 34.49466 0 22.38975 19.861875 37.109205 58.170015 36.57474v-64.034685c-12.408255 0-23.22756-7.88697-30.233385-7.034715z" fill="#340603"/><path d="m214.06331 46.514755c16.64064 2.22453 27.93663 17.926245 27.93663 34.49466 0 22.38975-19.87632 37.109205-58.170015 36.57474v-64.034685c12.408255 0 23.22756-7.88697 30.233385-7.034715z" fill="#701b12"/><path d="m28.93619 46.514755c-16.64064 2.22453-27.93663 17.926245-27.93663 34.49466 0 22.38975 19.87632 37.109205 58.170015 36.57474v-64.034685c-12.408255 0-23.22756-7.88697-30.233385-7.034715z" fill="#340603"/><path d="m89.40296 46.514755c16.64064 2.22453 27.93663 17.926245 27.93663 34.49466 0 22.38975-19.861875 37.109205-58.170015 36.57474v-64.034685c12.408255 0 23.22756-7.88697 30.233385-7.034715z" fill="#701b12"/><path d="m87.554 125.48557c-16.64064 2.210085-27.93663 17.839575-27.93663 34.480215 0 22.38975 19.861875 37.109205 58.170015 36.57474v-64.034685c-12.466035 0-23.28534-7.959195-30.233385-7.02027z" fill="#340603"/><path d="m147.96299 125.48557c16.64064 2.210085 27.93663 17.839575 27.93663 34.480215 0 22.38975-19.861875 37.109205-58.170015 36.57474v-64.034685c12.408255 0 23.270895-7.959195 30.233385-7.02027z" fill="#701b12"/></g></svg>