<svg viewBox="0 0 244 243" xmlns="http://www.w3.org/2000/svg"><g stroke-width="1.5941"><path d="m120.841448.998131a35.325256 35.325256 0 0 0 -25.5056 10.855821 36.377362 36.377362 0 0 0 -4.208424-.255056 35.357138 35.357138 0 0 0 -35.325256 34.767321c-.940519-.079705-1.881038-.127528-2.837498-.127528a35.357138 35.357138 0 0 0 -5.754701 70.236046 35.325256 35.325256 0 0 0 33.4761 46.611484c1.195575 0 2.375209 0 3.538902-.175351h19.814663v79.083301h17.949566v-240.964156z" fill="#76b956"/><path d="m226.370868 83.540629a35.357138 35.357138 0 0 0 -35.357138-35.357138h-.111587c0-.876755.111587-1.769451.111587-2.662147a35.357138 35.357138 0 0 0 -35.357138-35.357138 34.974554 34.974554 0 0 0 -9.644305 1.354985 35.261492 35.261492 0 0 0 -24.023087-10.489178v240.964156h21.169648v-79.083301h22.572456a35.341197 35.341197 0 0 0 33.986212-45.097089 35.373079 35.373079 0 0 0 26.653352-34.27315z" fill="#a4cd39"/></g></svg>