<svg viewBox="0 0 243 243" xmlns="http://www.w3.org/2000/svg"><g stroke-width="1.6322"><path d="m101.926222 17.44155c16.942236 16.942236 16.419932 44.934466 16.419932 44.934466s-27.99223.522304-44.999754-16.436254-16.322-44.934466-16.322-44.934466 27.943264-.522304 44.901822 16.436254z" fill="#76b956"/><path d="m134.815052 17.506838c-16.942236 16.942236-16.419932 44.934466-16.419932 44.934466s27.99223.522304 44.934466-16.419932 16.436254-44.950788 16.436254-44.950788-27.99223-.505982-44.950788 16.436254z" fill="#a4cd39"/><path d="m109.075258 80.085386c-45.734244-32.856186-93.427128-11.964026-101.229044 43.857214-6.985816 49.94532 26.702792 108.361758 70.723226 115.265964a241.5656 241.5656 0 0 0 42.92686 2.709452v-158.56823c-4.0805 1.420014-7.442832.310118-12.421042-3.2644z" fill="#da3c3b"/><path d="m236.011452 133.947986c-.440694-14.885664-3.035892-29.232702-11.4254-41.898574-21.822514-32.56239-59.836452-37.475312-97.377052-11.735518a24.31978 24.31978 0 0 1 -5.647412 3.035892v158.551908a237.583032 237.583032 0 0 0 39.923612-4.341652c45.032398-8.944456 76.14213-55.57641 74.526252-103.612056z" fill="#f05351"/></g></svg>