<svg viewBox="0 0 244 243" xmlns="http://www.w3.org/2000/svg"><g stroke-width="1.8021"><path d="m86.883061 198.196526a36.186168 36.186168 0 0 0 36.186168 36.168147v-72.318273a36.168147 36.168147 0 0 0 -36.186168 36.150126z" fill="#0955ab"/><path d="m123.069229 162.0464v72.336294a36.168147 36.168147 0 1 0 0-72.336294z" fill="#2f93d1"/><path d="m1.26529 196.394426a36.186168 36.186168 0 0 0 36.22221 36.168147v-72.318273a36.186168 36.186168 0 0 0 -36.22221 36.150126z" fill="#0955ab"/><path d="m37.4875 160.2443v72.354315a36.186168 36.186168 0 0 0 0-72.354315z" fill="#2f93d1"/><path d="m170.8429 196.394426a36.168147 36.168147 0 0 0 36.042 36.168147v-72.318273a36.168147 36.168147 0 0 0 -36.042 36.150126z" fill="#0955ab"/><path d="m206.8849 160.2443v72.354315a36.186168 36.186168 0 0 0 0-72.354315z" fill="#2f93d1"/><path d="m41.0917 120.129554a36.186168 36.186168 0 0 0 36.168147 36.186168v-72.354315a36.186168 36.186168 0 0 0 -36.168147 36.168147z" fill="#0955ab"/><path d="m77.277868 83.961407v72.354315a36.186168 36.186168 0 1 0 0-72.354315z" fill="#2f93d1"/><path d="m127.23208 120.129554a36.186168 36.186168 0 0 0 36.186168 36.186168v-72.354315a36.186168 36.186168 0 0 0 -36.186168 36.168147z" fill="#0955ab"/><path d="m163.418248 83.961407v72.354315a36.186168 36.186168 0 0 0 0-72.354315z" fill="#2f93d1"/><path d="m84.52231 44.801774a36.168147 36.168147 0 0 0 36.168147 36.150126v-72.318273a36.186168 36.186168 0 0 0 -36.168147 36.168147z" fill="#0955ab"/><path d="m120.690457 8.633627v72.318273a36.168147 36.168147 0 1 0 0-72.336294z" fill="#2f93d1"/></g></svg>