<svg viewBox="0 0 244 243" xmlns="http://www.w3.org/2000/svg"><g stroke-width="1.3068"><path d="m145.72302 88.37282-3.606768 59.799168-.39204 6.455592-4.038012 66.333168 13.616856.823284 3.998808-66.333168 53.212896 3.20166a66.947364 66.947364 0 0 0 -62.79174-70.279704z" fill="#c5872b"/><path d="m74.9598 150.602636 53.199828 3.20166-4.064148 66.359304 13.629924.823284 3.998808-66.333168.39204-6.455592 3.606768-59.799168a66.947364 66.947364 0 0 0 -70.76322 62.20368z" fill="#984707"/><path d="m35.638188 66.209492c1.803384 13.159476 55.60434 172.131696 56.806596 175.712328l-29.625156-211.074336c-16.805448 3.149388-29.494476 18.517356-27.18144 35.362008z" fill="#e42005"/><path d="m77.5734 31.370204a33.19272 33.19272 0 0 0 -13.068-.78408c-.548856 0-1.097712.156816-1.646568.26136l29.585952 211.074336v.078408l8.88624-169.505028s.182952-3.632904.378972-7.213536c.797148-15.524784-9.108396-29.938788-24.136596-33.91146z" fill="#f15b22"/><path d="m58.520256 1.000172a30.31776 30.31776 0 0 0 -3.802788 6.886836 30.409236 30.409236 0 0 0 -7.082856-3.253932 30.958092 30.958092 0 0 0 -1.149984 9.722592 30.657528 30.657528 0 0 0 -9.970884-.365904s1.3068 10.728828 8.69022 16.295796c6.089688 4.586868 14.3748 4.2471 17.145216 3.9204h.797148l-4.613004-33.205788z" fill="#69a50d"/><path d="m82.905144 7.4819a30.552984 30.552984 0 0 0 -9.591912 3.149388 30.77514 30.77514 0 0 0 -3.78972-9.069192 30.592188 30.592188 0 0 0 -5.632308 4.76982 30.827412 30.827412 0 0 0 -5.35788-5.331744l4.665276 33.166584h.313632c2.6136-.470448 10.84644-2.391444 15.498648-8.55954 5.593104-7.461828 3.894264-18.125316 3.894264-18.125316z" fill="#a4cd39"/></g></svg>