<svg viewBox="0 0 243 243" xmlns="http://www.w3.org/2000/svg"><g transform="matrix(1.4012 0 0 1.4012 -48.741 -48.737)"><ellipse cx="93.65" cy="154.63" fill="#fdb500" rx="13" ry="27.46" transform="matrix(.7585894 -.65156897 .65156897 .7585894 -78.147626 98.358987)"/><ellipse cx="93.65" cy="120.16" fill="#fdb500" rx="13" ry="27.46" transform="matrix(.7585894 -.65156897 .65156897 .7585894 -55.679838 90.039711)"/><ellipse cx="93.65" cy="85.68" fill="#fdb500" rx="13" ry="27.46" transform="matrix(.7585894 -.65156897 .65156897 .7585894 -33.220305 81.710155)"/><g fill="#fed700"><ellipse cx="149.35" cy="154.63" rx="27.46" ry="13" transform="matrix(.65156897 -.7585894 .7585894 .65156897 -65.258403 167.162148)"/><ellipse cx="149.35" cy="120.16" rx="27.46" ry="13" transform="matrix(.65156897 -.7585894 .7585894 .65156897 -39.109826 155.15173)"/><ellipse cx="149.35" cy="85.68" rx="27.46" ry="13" transform="matrix(.65156897 -.7585894 .7585894 .65156897 -12.959732 143.140615)"/><path d="m124.76 87.23a38.07 38.07 0 0 1 -3.4 3.2v117.06h9.5z"/><path d="m123.66 65.55 1.1 21.68a35.48 35.48 0 0 0 -3.4-51.72v30z"/><path d="m121.36 65.55v24.88a38.07 38.07 0 0 0 3.4-3.2l-1.1-21.68z"/></g><path d="m108.36 63a35.37 35.37 0 0 0 9.64 24.23l-6.1 120.26h9.5v-172a35.41 35.41 0 0 0 -13.04 27.51z" fill="#fdb500"/></g></svg>