<svg viewBox="0 0 244 243" xmlns="http://www.w3.org/2000/svg"><g stroke-width="1.8397"><g fill="#007b7f"><path d="m69.130422 241.047256-29.159245-156.852822h2.961917c14.423248 0 21.745254-4.801617 28.828099-9.437661s13.926529-9.1985 27.816264-9.1985a41.411647 41.411647 0 0 1 21.506093 5.353527v170.098662z"/><path d="m99.577457 66.643696a40.4734 40.4734 0 0 1 20.586243 4.856808v168.663696h-50.260604l-28.846496-154.994725h1.8397c14.7176 0 22.0764-4.875205 29.324818-9.584837s13.705765-8.977736 27.319545-8.977736m0-1.8397c-28.33138 0-28.33138 18.562573-56.644363 18.562573-1.434966 0-2.777947 0-4.065737-.165573l29.4352 158.76611h53.737637v-171.515231a42.423482 42.423482 0 0 0 -22.425943-5.5191z"/><path d="m42.8963 69.182482h-3.293063l-12.454769-67.222638h93.935082v53.645652a43.398523 43.398523 0 0 0 -21.506093-4.930396c-14.368057 0-21.726857 4.764823-28.828099 9.400867s-13.926529 9.106515-27.853058 9.106515z"/><path d="m120.1637 2.8429v51.272439a44.502343 44.502343 0 0 0 -20.586243-4.396883c-14.7176 0-22.0764 4.875205-29.324818 9.584837s-13.705765 8.977736-27.356339 8.977736h-2.520389l-12.105226-65.438129h91.985m1.8397-1.8397h-96.050737l12.8779 68.896765c1.28779 0 2.630771.165573 4.065737.165573 28.312983 0 28.312983-18.562573 56.644363-18.562573a42.423482 42.423482 0 0 1 22.425943 5.5191v-56.018865z"/></g><path d="m122.92325 241.047256v-169.031636c1.545348.91985 3.035505 1.8397 4.470471 2.833138 7.082845 4.636044 14.404851 9.437661 28.846496 9.437661s21.763651-4.801617 28.846496-9.437661c5.979025-3.900164 11.626904-7.597961 21.395711-8.756972l-35.616592 174.95547z" fill="#00b1b4"/><path d="m205.323413 67.2324-35.211858 172.9318h-46.268455v-166.511247c1.030232.643895 2.060464 1.324584 3.053902 1.968479 7.193227 4.709632 14.7176 9.584837 29.4352 9.584837s22.0764-4.875205 29.343215-9.584837c5.611085-3.6794 10.946215-7.156433 19.739981-8.444223m2.299625-2.115655c-23.161823 2.134052-24.927935 18.397-51.382821 18.397-18.010663 0-24.578392-7.505976-34.236817-12.8779v171.423246h49.6719l36.002929-176.905552z" fill="#00b1b4"/><path d="m156.240217 69.182482c-13.889735 0-20.659831-4.41528-27.834661-9.1985-1.8397-1.159011-3.569018-2.336419-5.5191-3.440239v-54.583899h93.8247l-9.952777 48.991211c-10.578275 1.140614-16.778064 5.187954-22.793883 9.1985-7.046051 4.617647-13.834544 9.032927-27.724279 9.032927z" fill="#00b1b4"/><path d="m215.699321 2.8429-9.603234 47.28029c-10.375908 1.232599-16.5573 5.279939-22.517928 9.1985-7.046051 4.617647-13.705765 8.977736-27.337942 8.977736s-20.2367-4.360089-27.319545-8.977736c-1.637333-1.067026-3.31146-2.170846-5.077572-3.201078v-53.277712zm2.262831-1.8397h-95.958752v56.11085c9.658425 5.5191 16.226154 12.8779 34.236817 12.8779 26.454886 0 28.220998-16.170963 51.382821-18.305015z" fill="#00b1b4"/></g></svg>