<svg viewBox="0 0 243 243" xmlns="http://www.w3.org/2000/svg"><g stroke-width="1.2848"><path d="m232.302352 46.022048a17.820176 17.820176 0 0 0 -23.524688 6.87368 12.39832 12.39832 0 0 0 -.629552 1.2848l8.389744 18.668144z" fill="#00330d"/><path d="m198.39648 103.504-13.29768-31.015072a20.10712 20.10712 0 0 1 1.901504-.745184v-.077088l12.668128 29.5504 15.54608-26.235616-9.263408-20.5568a23.229184 23.229184 0 0 0 -18.912256 17.293408v.077088a20.10712 20.10712 0 0 0 -1.901504.745184 20.5568 20.5568 0 0 0 -12.051424 21.738816h-.077088l12.089968 31.773104z" fill="#00330d"/><path d="m145.9124 119.384128a23.216336 23.216336 0 0 0 -4.162752 42.01296 24.899424 24.899424 0 0 0 3.006432 1.464672 17.871568 17.871568 0 0 0 1.066384 12.385472l-23.229184 39.8288 7.464688 4.355472 33.738848-57.212144z" fill="#00330d"/><path d="m183.814 128.339184-12.848-33.893024.976448-.089936-.976448.089936a26.9808 26.9808 0 0 0 -22.920832 24.334112l17.190624 41.1136z" fill="#00330d"/><path d="m238.649264 72.28336a21.224896 21.224896 0 0 1 .796576 2.017136l-22.445456 1.773024-15.057856 25.50328 32.595376-3.8544a23.19064 23.19064 0 0 0 4.907936-23.460448 21.224896 21.224896 0 0 0 -.796576-2.017136 12.616736 12.616736 0 0 0 .912208-1.41328 17.820176 17.820176 0 0 0 -5.4604-23.794496l-15.815888 26.839472z" fill="#00723a"/><path d="m200.619184 103.838048-13.336224 22.599632 33.970112-3.263392c.295504.655248.552464 1.2848.783728 2.017136l-36.064336 3.456112-18.719536 31.747408 44.51832-4.43256a26.890864 26.890864 0 0 0 10.2784-30.8352c-.231264-.680944-.488224-1.361888-.783728-2.017136a20.646736 20.646736 0 0 0 13.593184-23.344816c-.06424-.3212-.141328-.629552-.218416-.950752.077088.3212.154176.629552.218416.950752z" fill="#00723a"/><path d="m234.409424 97.902272.12848-.141328z" fill="#00723a"/><path d="m212.182384 158.018064-46.2528 4.612432-34.098592 57.816 7.811584 4.548192 23.1264-39.57184a17.781632 17.781632 0 0 0 11.781616-5.241984 23.601776 23.601776 0 0 0 3.109216 2.18416 23.216336 23.216336 0 0 0 34.522576-24.334112z" fill="#00723a"/><g fill="#fff"><path d="m172.995984 94.227744c-.38544 0-.77088.077088-1.15632.12848.38544 0 .77088-.102784 1.15632-.12848z"/><path d="m147.929536 118.780272c-.668096.167024-1.2848.372592-2.017136.603856.6424-.231264 1.34904-.436832 2.017136-.603856z"/><path d="m212.182384 158.018064c-.12848-.668096-.282656-1.34904-.475376-2.004288.19272.655248.346896 1.2848.475376 2.004288z"/><path d="m208.122416 54.129136-1.079232.089936z"/><path d="m207.043184 54.219072c-.359744 0-.732336.089936-1.09208.154176.359744-.06424.732336-.115632 1.09208-.154176z"/><path d="m234.62784 98.865872c-.077088-.3212-.141328-.6424-.218416-.9636.077088.3212.141328.6424.218416.9636z"/><path d="m212.182384 158.018064c-.12848-.668096-.282656-1.34904-.475376-2.004288l-44.51832 4.43256 18.719536-31.747408 36.064336-3.456112c-.231264-.680944-.488224-1.361888-.783728-2.017136l-33.970112 3.263392 13.336224-22.599632 34.227072-4.021424c-.06424-.3212-.141328-.629552-.218416-.950752s-.141328-.6424-.218416-.9636l.12848-.141328-32.595376 3.8544 15.045008-25.516128 22.445456-1.773024a21.224896 21.224896 0 0 0 -.796576-2.017136l-20.36408 1.593152 15.815888-26.800928-1.79872-1.053536-15.713104 26.698144-8.389744-18.668144-1.079232.089936c-.359744 0-.732336.089936-1.09208.154176l9.263408 20.5568-15.507536 26.287008-12.668128-29.5504v.077088a20.10712 20.10712 0 0 0 -1.901504.745184l13.271984 31.015072-13.310528 22.54824-12.102816-31.824496c-.38544 0-.77088.077088-1.15632.12848l-.976448.089936 12.848 33.893024-18.6296 31.593232-17.190624-41.1136c-.668096.167024-1.2848.372592-2.017136.603856l17.884416 42.78384-33.738848 57.212144 1.785872 1.053536 34.098592-57.816z"/></g><path d="m9.158288 45.0456a17.79448 17.79448 0 0 0 -5.807296 23.807344c.231264.411136.488224.783728.745184 1.169168l20.402624 2.081376z" fill="#00330d"/><path d="m41.984928 103.144256-33.494736-4.021424a17.550368 17.550368 0 0 1 .308352-2.004288h-.06424l31.978672 3.8544-15.019312-26.6596-22.471152-2.286944a23.1264 23.1264 0 0 0 1.490368 19.85016 23.653168 23.653168 0 0 0 4.021424 5.1392h.06424a17.550368 17.550368 0 0 0 -.308352 2.004288 20.5568 20.5568 0 0 0 12.848 21.314832v.077088l33.53328 5.576032z" fill="#00330d"/><path d="m29.496672 156.527696a23.203488 23.203488 0 0 0 34.30416 24.616768 22.252736 22.252736 0 0 0 2.775168-1.86296 17.85872 17.85872 0 0 0 11.254848 5.26768l22.830896 40.008672 7.503232-4.291232-32.672464-57.816z" fill="#00330d"/><path d="m56.16912 128.249248-35.794528-5.7816c.12848-.308352.269808-.591008.411136-.89936-.141328.308352-.282656.591008-.411136.89936a26.9808 26.9808 0 0 0 9.623152 32.017216l44.235664 5.678816z" fill="#00330d"/><path d="m35.072704 52.677312a20.094272 20.094272 0 0 1 2.145616.3212l-9.687392 20.312688 14.569632 25.798784 12.97648-30.141408a22.368368 22.368368 0 0 0 -2.017136-4.650976 23.1264 23.1264 0 0 0 -15.841584-11.319088 20.094272 20.094272 0 0 0 -2.145616-.3212 13.721664 13.721664 0 0 0 -.758032-1.503216 17.820176 17.820176 0 0 0 -23.344816-7.156336l15.314816 27.096432z" fill="#00723a"/><path d="m43.38536 101.396928 12.848 22.843744 14.1328-31.053616c.719488.077088 1.426128.19272 2.132768.334048l-15.03216 32.95512 18.128528 32.12 18.424032-40.779552a26.9808 26.9808 0 0 0 -21.430464-24.295568c-.70664-.141328-1.41328-.25696-2.132768-.334048a20.633888 20.633888 0 0 0 -13.439008-23.4476c-.308352-.115632-.616704-.19272-.937904-.282656.3212.089936.629552.167024.937904.282656z" fill="#00723a"/><path d="m55.14128 69.161296a1.683088 1.683088 0 0 1 0-.19272 1.683088 1.683088 0 0 0 0 .19272z" fill="#00723a"/><path d="m96.087856 118.47192-19.117824 42.3984 33.006512 58.419856 7.850128-4.483952-22.715264-39.8288a17.820176 17.820176 0 0 0 1.34904-12.848 25.143536 25.143536 0 0 0 3.443264-1.593152 23.203488 23.203488 0 0 0 -3.8544-42.064352z" fill="#00723a"/><path d="m21.261104 120.514752c-.179872.346896-.3212.70664-.475376 1.053536.154176-.346896.295504-.70664.475376-1.053536z" fill="#fff"/><path d="m29.984896 154.497712c-.19272.655248-.359744 1.34904-.488224 2.029984.141328-.680944.295504-1.374736.488224-2.029984z" fill="#fff"/><path d="m96.087856 118.47192a19.631744 19.631744 0 0 0 -1.978592-.603856 19.631744 19.631744 0 0 1 1.978592.603856z" fill="#fff"/><path d="m4.096176 70.03496c-.167024.3212-.3212.6424-.462528.976448.141328-.334048.295504-.655248.462528-.976448z" fill="#fff"/><path d="m3.633648 71.011408c-.154176.334048-.282656.680944-.411136 1.02784.12848-.346896.25696-.693792.411136-1.02784z" fill="#fff"/><path d="m56.079184 69.4568-.937904-.295504z" fill="#fff"/><path d="m96.087856 118.47192a19.631744 19.631744 0 0 0 -1.978592-.603856v-.077088l-18.424032 40.779552-18.128528-32.12 15.03216-32.95512c-.70664-.141328-1.41328-.25696-2.132768-.334048l-14.1328 31.053616-12.848-22.843744 13.541792-31.631776c-.308352-.115632-.616704-.19272-.937904-.282656l-.937904-.295504a1.683088 1.683088 0 0 1 0-.19272l-13.04072 30.141408-14.58248-25.798784 9.70024-20.312688a20.094272 20.094272 0 0 0 -2.145616-.3212l-8.788032 18.43688-15.314816-27.096432-1.811568 1.02784 15.340512 27.057888-20.402624-2.068528c-.167024.3212-.3212.6424-.462528.976448s-.282656.680944-.411136 1.02784l22.471152 2.274096 15.019312 26.582512-31.978672-3.8544h.06424a17.550368 17.550368 0 0 0 -.308352 2.004288l33.494736 4.021424 12.848 22.792352-33.610368-5.421856c-.179872.346896-.3212.70664-.475376 1.053536s-.282656.591008-.411136.89936l35.794528 5.7816 17.9872 31.92728-44.235664-5.678816c-.19272.655248-.359744 1.34904-.488224 2.029984l45.99584 5.91008 32.672464 57.816 1.811568-1.02784-32.903728-58.32992z" fill="#fff"/><path d="m120.653232 18.0648a17.79448 17.79448 0 0 0 -16.933664 17.717392v1.374736l16.586768 11.974336z" fill="#00330d"/><path d="m120.02368 84.733072-26.9808-20.2356c.398288-.552464.822272-1.079232 1.2848-1.580304a.167024.167024 0 0 0 0-.077088l25.773088 19.272.282656-30.526848-18.37264-13.182048a23.1264 23.1264 0 0 0 -7.7088 24.4112.167024.167024 0 0 1 0 .077088c-.436832.501072-.860816 1.02784-1.2848 1.580304a20.5568 20.5568 0 0 0 .423984 24.86088l26.40264 21.5204z" fill="#00330d"/><path d="m82.520368 124.7032a23.216336 23.216336 0 0 0 17.396192 38.544 23.922976 23.922976 0 0 0 3.34048-.218416 17.768784 17.768784 0 0 0 7.117792 10.188464l-.231264 46.06008h8.633856l.616704-66.437008z" fill="#00330d"/><path d="m119.753872 113.563984-28.098576-22.907984.796576-.565312-.796576.565312a26.9808 26.9808 0 0 0 -7.7088 32.531136l35.46048 26.9808z" fill="#00330d"/><path d="m139.269984 37.568064c.591008.423984 1.15632.873664 1.708784 1.2848l-18.56536 12.758064-.269808 29.5504 26.312704-19.413328a22.843744 22.843744 0 0 0 .591008-5.1392 23.1264 23.1264 0 0 0 -8.068544-17.691696c-.552464-.475376-1.117776-.925056-1.708784-1.2848a14.621024 14.621024 0 0 0 .089936-1.683088 17.79448 17.79448 0 0 0 -16.625312-17.884416l-.295504 31.117856z" fill="#00723a"/><path d="m122.1436 83.9108-.244112 26.248464 27.790224-19.824464c.57816.423984 1.143472.886512 1.683088 1.361888l-29.5504 21.032176-.346896 36.848064 36.35984-26.158528a.179872.179872 0 0 1 0 .077088.179872.179872 0 0 0 0-.077088 26.9808 26.9808 0 0 0 -6.48824-31.773104c-.539616-.475376-1.104928-.937904-1.683088-1.361888a20.659584 20.659584 0 0 0 .102784-26.9808l-.668096-.719488.668096.719488z" fill="#00723a"/><path d="m148.404912 61.87648a1.99144 1.99144 0 0 0 0-.19272 1.99144 1.99144 0 0 1 0 .19272z" fill="#00723a"/><path d="m159.222928 125.050096-37.734576 27.122128-.629552 67.092256h8.9936l.231264-45.828816a17.884416 17.884416 0 0 0 7.593168-10.432576 24.15424 24.15424 0 0 0 3.777312.334048 23.216336 23.216336 0 0 0 17.73024-38.338432z" fill="#00723a"/><path d="m93.389776 89.396896c-.3212.218416-.629552.462528-.937904.693792.308352-.231264.616704-.475376.937904-.693792z" fill="#fff"/><path d="m83.959344 123.199984a20.055728 20.055728 0 0 0 -1.438976 1.503216 20.055728 20.055728 0 0 1 1.438976-1.503216z" fill="#fff"/><path d="m159.222928 125.050096c-.44968-.51392-.912208-1.02784-1.41328-1.503216.501072.475376.9636.989296 1.41328 1.503216z" fill="#fff"/><path d="m103.77096 37.105536c-.308352.19272-.603856.411136-.89936.629552.295504-.218416.591008-.436832.89936-.629552z" fill="#fff"/><path d="m102.8716 37.735088c-.295504.205568-.57816.436832-.860816.668096.282656-.231264.565312-.462528.860816-.668096z" fill="#fff"/><path d="m149.1244 62.595968c-.231264-.231264-.436832-.488224-.680944-.719488.205568.231264.411136.488224.680944.719488z" fill="#fff"/><path d="m159.222928 125.050096c-.44968-.51392-.912208-1.02784-1.41328-1.503216a.179872.179872 0 0 0 0-.077088l-36.308448 26.107136.346896-36.848064 29.5504-21.032176c-.539616-.475376-1.104928-.937904-1.683088-1.361888l-27.790224 19.824464.218416-26.248464 27.636048-20.5568-.668096-.719488c-.231264-.231264-.436832-.488224-.680944-.719488a1.99144 1.99144 0 0 0 0-.19272l-26.287008 19.567504.269808-29.5504 18.56536-12.758064c-.552464-.475376-1.117776-.925056-1.708784-1.2848l-16.83088 11.5632.295504-31.194944h-2.081376l-.295504 31.079312-16.586768-12.038576c-.308352.19272-.603856.411136-.89936.629552s-.57816.436832-.860816.668096l18.321248 13.220592-.282656 30.526848-25.773088-19.272a.167024.167024 0 0 1 0 .077088c-.436832.501072-.860816 1.02784-1.2848 1.580304l26.9808 20.2356-.231264 26.184224-26.351248-21.558944c-.3212.218416-.629552.462528-.937904.693792l-.796576.565312 28.098576 22.907984-.334048 36.68104-35.46048-26.9808a20.055728 20.055728 0 0 0 -1.438976 1.438976l36.87376 28.111424-.616704 66.437008h2.081376l.629552-67.092256z" fill="#fff"/></g></svg>