<svg viewBox="0 0 244 243" xmlns="http://www.w3.org/2000/svg"><g stroke-width="1.4785"><path d="m96.63694 26.34049a25.37106 25.37106 0 0 0 25.37106 25.37106v-50.71255a25.37106 25.37106 0 0 0 -25.37106 25.34149z" fill="#070808"/><path d="m121.65316 223.89766a61.816085 61.816085 0 0 1 -61.74216-58.48946v-37.2582l31.0485-22.369705v-1.4785l.694895.961025-.17742.133065-.517475.369625v100.44929h28.0915v-49.603675h2.957v-51.052605l-.35484.251345v-1.4785l.35484.47312v-49.9733h-31.151995l-10.482565 36.415455-31.81732 23.020245 3.96238 5.485235v46.18834a69.179015 69.179015 0 0 0 69.119875 65.3497h.369625v-7.3925z" fill="#070808"/><g fill="#292c2d"><path d="m163.657345 91.27621-10.49735-36.415455h-31.151995v50.017655l.310485-.428765v1.286295l-.310485-.221775v51.052605h3.96238v67.138685c-1.30108.08871-2.63173.133065-3.96238.14785v7.3925c1.33065 0 2.6613 0 3.96238-.14785v10.896545h27.08612v-18.229905a69.07552 69.07552 0 0 0 37.67218-57.92763 2.957 2.957 0 0 1 0-.458335v-44.62113l4.657275-6.44626zm19.75276 73.703225v.38441a61.727375 61.727375 0 0 1 -30.353605 50.017655v-109.61599l-.458335-.32527-.192205-.133065.65054-.8871v1.345435l30.30925 21.91137z"/><path d="m147.37906 26.34049a25.37106 25.37106 0 0 0 -25.37106-25.34149v50.71255a25.37106 25.37106 0 0 0 25.37106-25.37106z"/></g></g></svg>