<svg viewBox="0 0 243 243" xmlns="http://www.w3.org/2000/svg"><g stroke-width="2.236"><path d="m61.43504 191.77148c0 27.7264 14.91412 50.1982 33.29404 50.22056v-118.26204c-.4472.559-33.29404 40.49396-33.29404 68.04148z" fill="#5e1905"/><path d="m94.75144 123.70764v118.26204c18.37992 0 33.29404-22.49416 33.29404-50.22056s-33.29404-68.04148-33.29404-68.04148z" fill="#9b5023"/><path d="m53.60904 86.99252c0 15.83088 8.4968 28.64316 19.006 28.66552v-67.48248c-.26832.31304-19.006 23.00844-19.006 38.81696z" fill="#5e1905"/><path d="m72.61504 48.1532v67.48248c10.5092 0 19.006-12.83464 19.006-28.66552s-19.006-38.81696-19.006-38.81696z" fill="#9b5023"/><path d="m89.20616 35.408c0 14.04208 7.55768 25.40096 16.85944 25.42332v-59.813c-.24596.26832-16.85944 20.50412-16.85944 34.38968z" fill="#5e1905"/><path d="m106.0656.99596v59.88008c9.32412 0 16.85944-11.38124 16.85944-25.42332s-16.85944-34.45676-16.85944-34.45676z" fill="#9b5023"/><path d="m13.3834 152.88744c0 18.60352 9.99492 33.69652 22.36 33.69652v-79.35564c-.3354.38012-22.36 27.18976-22.36 45.65912z" fill="#5e1905"/><path d="m35.72104 107.20596v79.35564c12.36508 0 22.36-15.07064 22.36-33.69652s-22.36-45.65912-22.36-45.65912z" fill="#9b5023"/><path d="m149.98064 186.91936c0 26.9438 14.48928 48.78952 32.35492 48.78952v-114.90804c-.4472.53664-32.35492 39.3536-32.35492 66.11852z" fill="#5e1905"/><path d="m182.35792 120.77848v114.90804c17.888 0 32.35492-21.84572 32.35492-48.78952s-32.35492-66.11852-32.35492-66.11852z" fill="#9b5023"/><path d="m2.15868 65.594c0 15.652 8.40736 28.33012 18.7824 28.33012v-66.7446c-.24596.31304-18.7824 22.87428-18.7824 38.41448z" fill="#5e1905"/><path d="m20.96344 27.17952v66.7446c10.37504 0 18.80476-12.67812 18.80476-28.33012s-18.80476-38.41448-18.80476-38.41448z" fill="#9b5023"/><path d="m119.68284 84.35404c0 23.00844 12.38744 41.67904 27.63696 41.67904v-98.1604c-.38012.4472-27.63696 33.60708-27.63696 56.48136z" fill="#5e1905"/><path d="m147.34216 27.85032v98.1604c15.27188 0 27.65932-18.64824 27.65932-41.67904s-27.65932-56.48136-27.65932-56.48136z" fill="#9b5023"/><path d="m176.70084 47.79544c0 15.4284 8.29556 27.92764 18.51408 27.92764v-65.76076c-.24596.31304-18.51408 22.51652-18.51408 37.83312z" fill="#5e1905"/><path d="m195.23728 9.93996v65.71604c10.21852 0 18.51408-12.49924 18.51408-27.92764s-18.51408-37.7884-18.51408-37.7884z" fill="#9b5023"/><path d="m202.2136 119.90644c0 16.07684 8.63096 29.068 19.29668 29.068v-68.51104c-.26832.31304-19.29668 23.478-19.29668 39.44304z" fill="#5e1905"/><path d="m221.51028 80.44104v68.55576c10.66572 0 19.31904-13.03588 19.31904-29.068s-19.31904-39.48776-19.31904-39.48776z" fill="#9b5023"/></g></svg>