<svg viewBox="0 0 244 243" xmlns="http://www.w3.org/2000/svg"><g stroke-width="1.8685"><path d="m93.73528 1.703215c-20.908515-5.6055-37.55685 24.2905-37.55685 24.2905-16.013045-6.80134-38.82743 10.91204-33.352725 35.221225-8.688525 1.64428-15.153535 19.4324-11.50996 30.71814 4.503085 14.01375 20.5535 22.19778 20.5535 26.159 0 4.82073-25.33686 12.687115-25.318175 24.608145s3.419355 20.5535 14.948 24.794995c-5.26917 17.71338-4.577825 38.023975 23.87943 41.92914 7.62348 23.412305 44.563725 40.88278 52.897235 28.457255 8.875375-13.26635 5.49339-42.284155 5.49339-42.284155l18.217875 23.39362v-162.5595c-20.21717-.03737-1.8685-47.53464-28.25172-54.728365z" fill="#5e1905"/><path d="m237.4603 142.700225c0-11.92103-25.22475-19.787415-25.318175-24.608145 0-3.96122 16.013045-12.14525 20.5535-26.159 3.737-11.211-2.821435-29.07386-11.50996-30.71814 5.6055-24.2905-17.33968-42.022565-33.352725-35.183855 0 0-16.648335-30.026795-37.55685-24.2905-26.42059 7.156355-8.07192 54.653625-28.28909 54.653625v162.5595l18.180505-23.39362s-3.381985 29.017805 5.49339 42.284155c8.33351 12.425525 45.273755-5.04495 52.897235-28.457255 28.494625-3.905165 29.18597-24.2905 24.02891-41.92914 11.50996-4.204125 14.87326-12.948705 14.87326-24.757625z" fill="#9b5023"/></g></svg>