<svg viewBox="0 0 244 243" xmlns="http://www.w3.org/2000/svg"><g stroke-width="1.4974"><g fill="#999"><path d="m166.9218 56.42507c0-30.591882-20.110082-55.4038-44.922-55.4038v10.661488c20.035212 0 36.282002 20.035212 36.282002 44.742312 0 18.477916-9.089218 34.350356-22.056702 41.163526v11.38024c17.834034-7.33726 30.6967-28.07625 30.6967-52.543766z"/><path d="m121.9998 242.0278h14.2253v-133.058964a37.225364 37.225364 0 0 1 -14.2253 2.860034z"/><path d="m121.9998 101.167382v10.661488a37.225364 37.225364 0 0 0 14.2253-2.860034v-11.38024a30.32235 30.32235 0 0 1 -14.2253 3.578786z"/></g><path d="m121.9998 11.682758v-10.661488c-24.811918 0-44.922 24.811918-44.922 55.4038 0 24.467516 12.862666 45.206506 30.6967 52.543766v133.058964h14.2253v-140.7556a30.32235 30.32235 0 0 1 -14.2253-3.578786c-12.967484-6.903014-22.056702-22.790428-22.056702-41.268344 0-24.7071 16.24679-44.742312 36.282002-44.742312z" fill="#5c5c5c"/><path d="m85.717798 56.42507c0 18.477916 9.089218 34.350356 22.056702 41.163526a30.32235 30.32235 0 0 0 14.2253 3.578786v-89.484624c-20.035212 0-36.282002 20.035212-36.282002 44.742312z" fill="#fcb640"/><path d="m121.9998 11.682758v89.484624a30.32235 30.32235 0 0 0 14.2253-3.578786c12.967484-6.81317 22.056702-22.68561 22.056702-41.163526 0-24.7071-16.24679-44.742312-36.282002-44.742312z" fill="#f98210"/></g></svg>