<svg viewBox="0 0 244 243" xmlns="http://www.w3.org/2000/svg"><g transform="matrix(1.488 0 0 1.488 -59.536 -59.292)"><path d="m122.02 40.74h7.51v51.8l25.16-45.28 13.11 7.29-25.45 45.78 44.74-27.24 7.8 12.82-44.53 27.11 52.11-1.79.51 14.99-56.63 1.95 47.74 30.53-8.08 12.63-43.3-27.69 24.72 45.06-13.15 7.22-24.75-45.12v51.46h-7.51v-65.15-.18l2.67-4.81-2.67-1.71v-.13l2.21-1.35-2.21.07v-15l2.06-.08-1.97-1.26 2.7-1.65-2.76-5.03-.03-.06z" fill="#fdb500"/><g fill="#fed700"><path d="m122 202.26h-7.49v-51.85l7.44-13.39.05.09z"/><path d="m114.51 40.74h7.49v65.18l-7.49-13.66z"/><path d="m76.57 54.3 13.16-7.22 24.78 45.18v15.55l-13.22-8.45z"/><path d="m49.91 84.31 8.08-12.64 43.3 27.69 8.27 15.06-11.91.41z"/><path d="m97.65 114.83 10.18 6.51-14.19 8.64-52.11 1.79-.51-14.99z"/><path d="m56.91 169.91-7.8-12.82 44.53-27.11 15.35-.53-7.34 13.22z"/><path d="m89.31 195.74-13.11-7.29 25.45-45.78 12.86-7.83v15.57z"/><path d="m122 60v123a61.5 61.5 0 0 0 0-123z"/></g><path d="m60.5 121.48a61.5 61.5 0 0 0 61.5 61.52v-123a61.5 61.5 0 0 0 -61.5 61.48z" fill="#fdb500"/></g></svg>